{
  "accessors": [
    {
      "bufferView": 1,
      "componentType": 5126,
      "count": 25523,
      "max": [
        0.04500000178813934,
        0.04800000041723251,
        0.18400000035762787
      ],
      "min": [
        -0.03500000014901161,
        -0.03400000184774399,
        0.050999995321035385
      ],
      "type": "VEC3"
    },
    {
      "bufferView": 1,
      "byteOffset": 306276,
      "componentType": 5126,
      "count": 25523,
      "max": [
        1.0,
        1.0,
        1.0
      ],
      "min": [
        -0.9999873042106628,
        -1.0,
        -1.0
      ],
      "type": "VEC3"
    },
    {
      "bufferView": 2,
      "componentType": 5126,
      "count": 25523,
      "max": [
        0.886274516582489,
        0.7529411911964417,
        0.5843137502670288,
        0.0
      ],
      "min": [
        0.3764705955982208,
        0.2235294133424759,
        0.07450980693101883,
        0.0
      ],
      "type": "VEC4"
    },
    {
      "bufferView": 0,
      "componentType": 5125,
      "count": 103626,
      "type": "SCALAR"
    }
  ],
  "asset": {
    "extras": {
      "author": "ramadhan.anggara (https://sketchfab.com/ramadhan.anggara)",
      "license": "CC-BY-4.0 (http://creativecommons.org/licenses/by/4.0/)",
      "source": "https://sketchfab.com/3d-models/nafeeza-lampu-gantung-a55d5fce72f2485986a830a92639713e",
      "title": "Nafeeza - Lampu Gantung"
    },
    "generator": "Sketchfab-16.68.0",
    "version": "2.0"
  },
  "bufferViews": [
    {
      "buffer": 0,
      "byteLength": 414504,
      "name": "floatBufferViews",
      "target": 34963
    },
    {
      "buffer": 0,
      "byteLength": 612552,
      "byteOffset": 414504,
      "byteStride": 12,
      "name": "floatBufferViews",
      "target": 34962
    },
    {
      "buffer": 0,
      "byteLength": 408368,
      "byteOffset": 1027056,
      "byteStride": 16,
      "name": "floatBufferViews",
      "target": 34962
    }
  ],
  "buffers": [
    {
      "byteLength": 1435424,
      "uri": "scene.bin"
    }
  ],
  "materials": [
    {
      "name": "lambert2SG.001",
      "pbrMetallicRoughness": {
        "metallicFactor": 0.5,
        "roughnessFactor": 0.5
      }
    }
  ],
  "meshes": [
    {
      "name": "Object_0",
      "primitives": [
        {
          "attributes": {
            "COLOR_0": 2,
            "NORMAL": 1,
            "POSITION": 0
          },
          "indices": 3,
          "material": 0,
          "mode": 4
        }
      ]
    }
  ],
  "nodes": [
    {
      "children": [
        1
      ],
      "matrix": [
        1.0,
        0.0,
        0.0,
        0.0,
        0.0,
        2.220446049250313e-16,
        -1.0,
        0.0,
        0.0,
        1.0,
        2.220446049250313e-16,
        0.0,
        0.0,
        0.0,
        0.0,
        1.0
      ],
      "name": "Sketchfab_model"
    },
    {
      "children": [
        2
      ],
      "name": "root"
    },
    {
      "children": [
        3
      ],
      "matrix": [
        1.0,
        0.0,
        0.0,
        0.0,
        0.0,
        2.220446049250313e-16,
        1.0,
        0.0,
        0.0,
        -1.0,
        2.220446049250313e-16,
        0.0,
        0.0,
        0.0,
        0.0,
        1.0
      ],
      "name": "GLTF_SceneRootNode"
    },
    {
      "children": [
        4
      ],
      "matrix": [
        1.0,
        0.0,
        0.0,
        0.0,
        0.0,
        2.220446049250313e-16,
        -1.0,
        0.0,
        0.0,
        1.0,
        2.220446049250313e-16,
        0.0,
        0.0,
        0.0,
        0.0,
        1.0
      ],
      "name": "_1"
    },
    {
      "children": [
        5
      ],
      "name": "Mesh_Mesh_head_geo.001_lambert2SG.001_0"
    },
    {
      "mesh": 0,
      "name": "Object_5"
    }
  ],
  "scene": 0,
  "scenes": [
    {
      "name": "Sketchfab_Scene",
      "nodes": [
        0
      ]
    }
  ]
}
